<svg
    width="16"
    height="16"
    viewBox="0 0 16 16"
    fill="none"
    xmlns="http://www.w3.org/2000/svg"
  >
    <path
      d="M14.6318 2.37475C13.8123 1.54791 12.712 1.05924 11.5491 1.00563C10.3862 0.952021 9.24559 1.33739 8.3535 2.08531C8.25088 2.16276 8.12728 2.20742 7.99886 2.21344C7.86965 2.20967 7.74502 2.16479 7.64307 2.08531C6.75139 1.33696 5.61089 0.951308 4.44803 1.00493C3.28516 1.05854 2.18499 1.54751 1.36595 2.37475C0.931488 2.80685 0.587052 3.32085 0.352588 3.88699C0.118123 4.45312 -0.00171239 5.06013 1.84859e-05 5.67289C1.84859e-05 6.91871 0.485074 8.09016 1.33621 8.93901L6.44073 14.9141C6.63308 15.1398 6.87211 15.321 7.14132 15.4452C7.41053 15.5695 7.7035 15.6339 8 15.6339C8.29651 15.6339 8.58948 15.5695 8.85869 15.4452C9.12789 15.321 9.36693 15.1398 9.55927 14.9141L14.6329 8.97104C15.0675 8.53895 15.4121 8.02498 15.6467 7.45886C15.8814 6.89275 16.0014 6.28572 16 5.67289C16.001 5.06004 15.8806 4.45305 15.6457 3.88698C15.4109 3.3209 15.0663 2.80693 14.6318 2.37475ZM13.8058 8.20685L8.70127 14.182C8.35007 14.5938 7.64765 14.5938 7.29644 14.182L2.16218 8.17482C1.83274 7.84697 1.5716 7.45703 1.39389 7.02757C1.21618 6.59811 1.12541 6.13767 1.12686 5.67289C1.12686 4.72795 1.49408 3.83906 2.16218 3.17097C2.49054 2.8403 2.88102 2.5778 3.31117 2.39855C3.74133 2.2193 4.20267 2.12685 4.66868 2.1265C5.48697 2.12598 6.27941 2.41307 6.90748 2.93759C6.95439 2.97878 7.37424 3.33914 7.99886 3.33914C8.60632 3.33914 9.03532 2.9845 9.07422 2.95018C9.75051 2.38287 10.6154 2.09056 11.4972 2.13124C12.379 2.17193 13.2132 2.54265 13.8344 3.16983C14.1651 3.50141 14.4269 3.89522 14.6046 4.32851C14.7823 4.7618 14.8724 5.22599 14.8697 5.6943C14.8671 6.1626 14.7717 6.62575 14.5891 7.05699C14.4065 7.48823 14.1402 7.87904 13.8058 8.20685Z"
      fill="white"
    />
  </svg>