<svg width="16" height="16" viewBox="0 0 16 16" fill="none" xmlns="http://www.w3.org/2000/svg">
<g clip-path="url(#clip0_1_38)">
<path d="M11.776 10.8473L15.0201 14.6494L13.9039 15.6L10.6685 11.8065C9.62206 12.5042 8.46803 12.853 7.20642 12.853C6.36342 12.853 5.55676 12.6888 4.78646 12.3603C4.01616 12.0318 3.35339 11.59 2.79815 11.0348C2.24292 10.4796 1.80108 9.81679 1.47263 9.04646C1.14418 8.27614 0.979942 7.46948 0.979919 6.6265C0.979897 5.78351 1.14413 4.97686 1.47263 4.20654C1.80112 3.43621 2.24296 2.77344 2.79815 2.21823C3.35334 1.66302 4.01611 1.22117 4.78646 0.892701C5.55681 0.56423 6.36346 0.399994 7.20642 0.399994C8.04938 0.399994 8.85604 0.56423 9.62639 0.892701C10.3967 1.22117 11.0595 1.66302 11.6147 2.21823C12.1699 2.77344 12.6117 3.43621 12.9402 4.20654C13.2687 4.97686 13.433 5.78351 13.4329 6.6265C13.4329 7.16136 13.3661 7.68459 13.2324 8.1962C13.0987 8.7078 12.9083 9.18453 12.6612 9.62638C12.4141 10.0682 12.119 10.4752 11.776 10.8473H11.776ZM7.20646 11.3879C7.85177 11.3879 8.46803 11.2614 9.05522 11.0085C9.64241 10.7556 10.1482 10.417 10.5726 9.99259C10.997 9.56821 11.3356 9.06242 11.5885 8.47522C11.8414 7.88803 11.9679 7.27178 11.9679 6.62646C11.9679 5.98115 11.8414 5.3649 11.5885 4.7777C11.3356 4.19051 10.997 3.68471 10.5726 3.2603C10.1482 2.83589 9.64241 2.49724 9.05522 2.24436C8.46803 1.99148 7.85177 1.86503 7.20646 1.86503C6.56114 1.86503 5.94489 1.99148 5.3577 2.24436C4.77051 2.49724 4.2647 2.8359 3.84029 3.26033C3.41588 3.68477 3.07724 4.19056 2.82435 4.7777C2.57147 5.36485 2.44503 5.9811 2.44503 6.62646C2.44503 7.27182 2.57147 7.88808 2.82435 8.47522C3.07724 9.06237 3.41589 9.56816 3.84033 9.99259C4.26476 10.417 4.77055 10.7557 5.3577 11.0085C5.94484 11.2614 6.5611 11.3878 7.20646 11.3879Z" fill="#030303"/>
</g>
<defs>
<clipPath id="clip0_1_38">
<rect width="16" height="16" fill="white"/>
</clipPath>
</defs>
</svg>
