<svg width="24" height="24" viewBox="0 0 24 24" fill="none" xmlns="http://www.w3.org/2000/svg">
<path d="M20 6H4V8.16784C3.34074 8.0564 2.67177 8 2 8V4H22V20H14C14 19.3282 13.9436 18.6593 13.8322 18H20V6Z" fill="white"/>
<path d="M2 12C3.05057 12 4.09086 12.2069 5.06147 12.609C6.03207 13.011 6.91399 13.6003 7.65685 14.3431C8.39972 15.086 8.989 15.9679 9.39104 16.9385C9.79307 17.9091 10 18.9494 10 20H12C12 18.6868 11.7413 17.3864 11.2388 16.1732C10.7362 14.9599 9.99965 13.8575 9.07107 12.9289C8.14248 12.0003 7.04009 11.2638 5.82683 10.7612C4.61358 10.2587 3.31322 10 2 10V12Z" fill="white"/>
<path d="M3.53073 16.3045C3.04543 16.1035 2.52529 16 2 16V14C2.78793 14 3.56815 14.1552 4.2961 14.4567C5.02405 14.7583 5.68549 15.2002 6.24264 15.7574C6.79979 16.3145 7.24175 16.9759 7.54328 17.7039C7.84481 18.4319 8 19.2121 8 20H6C6 19.4747 5.89654 18.9546 5.69552 18.4693C5.4945 17.984 5.19986 17.543 4.82843 17.1716C4.45699 16.8001 4.01604 16.5055 3.53073 16.3045Z" fill="white"/>
<path d="M2.76537 18.1522C2.52272 18.0517 2.26264 18 2 18V20H4C4 19.7374 3.94827 19.4773 3.84776 19.2346C3.74725 18.992 3.59993 18.7715 3.41421 18.5858C3.2285 18.4001 3.00802 18.2528 2.76537 18.1522Z" fill="white"/>
</svg>
