<svg width="16" height="16" viewBox="0 0 16 16" fill="none" xmlns="http://www.w3.org/2000/svg">
<path d="M13.0554 1L12.3978 1.76951C13.9883 3.24397 14.9897 5.34373 14.9897 7.67746C14.9897 10.0112 13.9873 12.1109 12.3978 13.5854L13.0544 14.3549C13.9824 13.5077 14.7236 12.4763 15.2307 11.3267C15.7379 10.177 15.9999 8.93425 16 7.67768C16.0001 6.42112 15.7383 5.17832 15.2313 4.02858C14.7243 2.87883 13.9832 1.84737 13.0554 1ZM10.764 3.68268L10.1075 4.45219C10.5358 4.87317 10.876 5.37525 11.1082 5.92913C11.3404 6.48301 11.4599 7.0776 11.4598 7.67818C11.4597 8.27876 11.34 8.8733 11.1076 9.42711C10.8753 9.98092 10.5349 10.4829 10.1065 10.9037L10.763 11.6732C11.8119 10.6647 12.4684 9.24875 12.4684 7.67847C12.4684 6.10819 11.8129 4.69121 10.764 3.68268ZM0 4.65188V10.703H2.82791L8.06822 13.7286V1.6263L2.82791 4.65188H0ZM7.05969 3.37307V11.9819L3.0982 9.69452H1.00853V5.66041H3.0982L7.05969 3.37307Z" fill="white"/>
</svg>
