<svg
  className="sidebar-menu-item-icon"
  width="25"
  height="25"
  viewBox="0 0 16 16"
  fill="none"
  xmlns="http://www.w3.org/2000/svg"
>
  <g clipPath="url(#clip0_1_30)">
    <path
      d="M8 0.400002C3.80502 0.400002 0.400002 3.80502 0.400002 8C0.400002 12.2041 3.80502 15.6 8 15.6C12.2041 15.6 15.6 12.195 15.6 8C15.6 3.80502 12.2041 0.400002 8 0.400002ZM11.4777 11.3687C11.3505 11.5957 11.06 11.6593 10.8421 11.5231C9.04421 10.4335 6.80144 10.1883 4.15006 10.7967C3.89582 10.8421 3.64158 10.6877 3.5871 10.4335C3.56894 10.1792 3.7233 9.92497 3.9503 9.87049C6.85592 9.20765 9.36201 9.48913 11.3596 10.7149C11.5957 10.8511 11.6683 11.1417 11.5231 11.3687H11.4777ZM12.4311 9.29845C12.2495 9.57085 11.8863 9.66165 11.6139 9.49821C9.57085 8.227 6.45639 7.8638 4.0411 8.60837C3.75054 8.69917 3.4055 8.51756 3.3147 8.21792C3.2239 7.91828 3.4055 7.58232 3.73238 7.49152C6.49271 6.67431 9.92497 7.08292 12.2676 8.49032C12.54 8.67193 12.6308 9.03513 12.4492 9.30753L12.4311 9.29845ZM12.5219 7.1374C10.0703 5.68459 6.02055 5.54839 3.6779 6.25663C3.3147 6.37467 2.93334 6.16583 2.81529 5.78447C2.69725 5.42127 2.90609 5.01267 3.28746 4.89463C5.97515 4.07742 10.4425 4.24086 13.2574 5.91159C13.5933 6.11135 13.7114 6.54719 13.5025 6.88316C13.3209 7.2282 12.8669 7.33716 12.54 7.1374H12.5219Z"
      fill="white"
    />
  </g>
  <defs>
    <clipPath id="clip0_1_30">
      <rect width="16" height="16" fill="white" />
    </clipPath>
  </defs>
</svg>